<svg width="28" height="28" viewBox="0 0 28 28" fill="none" xmlns="http://www.w3.org/2000/svg">
<path d="M13.5859 25.2969C13.7734 25.2969 14.0664 25.2265 14.3594 25.0742C21.0273 21.582 23.1719 19.8359 23.1719 15.6289V6.79297C23.1719 5.58594 22.6562 5.19922 21.6719 4.78906C20.3008 4.22656 15.918 2.63281 14.5586 2.16406C14.2422 2.05859 13.9141 2 13.5859 2C13.2578 2 12.9297 2.07031 12.625 2.16406C11.2539 2.60938 6.87109 4.23828 5.5 4.78906C4.52734 5.1875 4 5.58594 4 6.79297V15.6289C4 19.8359 6.26172 21.3828 12.8125 25.0742C13.1172 25.2383 13.3984 25.2969 13.5859 25.2969ZM8.30078 14.0351C8.30078 13.8945 8.37109 13.7187 8.5 13.5664L15.1211 5.25781C15.625 4.625 16.4688 5.04688 16.1641 5.83203L13.9844 11.6914H18.0742C18.3906 11.6914 18.625 11.914 18.625 12.2305C18.625 12.3711 18.5547 12.5469 18.4258 12.6992L11.8047 21.0078C11.3008 21.6406 10.4688 21.2187 10.7617 20.4453L12.9531 14.5742H8.85156C8.54688 14.5742 8.30078 14.3515 8.30078 14.0351Z" fill="#FF9500"/>
</svg>
